<?xml version="1.0" standalone="no"?>
<!DOCTYPE svg PUBLIC "-//W3C//DTD SVG 20010904//EN"
 "http://www.w3.org/TR/2001/REC-SVG-20010904/DTD/svg10.dtd">
<svg version="1.0" xmlns="http://www.w3.org/2000/svg"
 width="130.000000pt" height="80.000000pt" viewBox="0 0 130.000000 80.000000"
 preserveAspectRatio="xMidYMid meet">

<g transform="translate(0.000000,80.000000) scale(0.100000,-0.100000)"
fill="#000000" stroke="none">
<path d="M68 668 c4 -35 7 -190 7 -346 l0 -282 98 0 c53 0 97 2 97 5 0 3 -10
19 -22 36 -22 29 -23 41 -29 307 -4 152 -7 292 -8 310 l-1 32 -75 0 -75 0 8
-62z"/>
<path d="M414 697 c14 -18 34 -52 45 -77 20 -44 20 -44 27 -16 3 15 22 50 40
77 l34 49 -85 0 -86 0 25 -33z"/>
<path d="M614 697 c14 -18 34 -53 45 -77 l20 -44 11 29 c16 45 31 72 52 94 10
11 18 23 18 26 0 3 -38 5 -86 5 l-85 0 25 -33z"/>
<path d="M845 385 l0 -346 80 3 c66 2 79 6 76 18 -4 12 -16 401 -20 613 l-1
57 -68 0 -68 0 1 -345z"/>
<path d="M1089 693 c17 -21 38 -56 47 -78 l16 -39 13 38 c7 21 27 56 45 77
l31 39 -91 0 -91 0 30 -37z"/>
<path d="M404 467 c-3 -9 -33 -30 -66 -46 l-59 -30 38 -16 c21 -9 55 -29 75
-46 l37 -29 -6 87 c-6 94 -9 105 -19 80z"/>
<path d="M467 148 c-10 -25 -29 -55 -42 -68 -13 -13 -22 -27 -19 -31 7 -12
164 -12 164 -1 0 5 -10 17 -21 28 -12 10 -32 41 -44 68 l-21 48 -17 -44z"/>
</g>
</svg>
